<svg xmlns="http://www.w3.org/2000/svg" id="icon" width="60" height="60.112" viewBox="0 0 60 60.112"><path id="Path_312" fill="#33485d" d="M32.969,61.112H30.452a6.5,6.5,0,0,1-4.558-1.885L15.524,48.862a2.149,2.149,0,0,0-1.516-.631H7.194A6.45,6.45,0,0,1,.75,41.79V20.322a6.45,6.45,0,0,1,6.444-6.441h6.813a2.166,2.166,0,0,0,1.521-.627L25.9,2.889A6.477,6.477,0,0,1,30.452,1h2.517a6.45,6.45,0,0,1,6.444,6.441V54.671A6.45,6.45,0,0,1,32.969,61.112ZM7.194,18.175a2.147,2.147,0,0,0-2.148,2.147V41.79a2.154,2.154,0,0,0,2.148,2.147h6.813a6.5,6.5,0,0,1,4.558,1.885l10.37,10.365a2.148,2.148,0,0,0,1.516.631h2.517a2.154,2.154,0,0,0,2.148-2.147V7.441a2.147,2.147,0,0,0-2.148-2.147H30.452a2.148,2.148,0,0,0-1.516.627L18.561,16.29a6.489,6.489,0,0,1-4.554,1.885Zm38.663,24.47A2.151,2.151,0,0,1,44.4,38.918a10.606,10.606,0,0,0,0-15.728,2.149,2.149,0,1,1,2.913-3.16,14.9,14.9,0,0,1,0,22.048,2.153,2.153,0,0,1-1.456.567Z" data-name="Path 312" transform="translate(-0.75 -1)"/><path id="Path_313" fill="#33485d" d="M12.891,46.467a2.151,2.151,0,0,1-.869-4.114,19.324,19.324,0,0,0,0-35.3A2.148,2.148,0,0,1,13.76,3.122a23.634,23.634,0,0,1,0,43.164,2.145,2.145,0,0,1-.869.181Z" data-name="Path 313" transform="translate(32.239 5.354)"/></svg>